<svg width="85.415527" height="88.000000" viewBox="0 0 85.4155 88" fill="none" xmlns="http://www.w3.org/2000/svg" xmlns:xlink="http://www.w3.org/1999/xlink">
	<desc>
			Created with Pixso.
	</desc>
	<defs/>
	<path id="path" d="M16.38 20.67L16.37 17.54C16.37 16.23 16.28 14.96 17.01 13.79C18.97 10.68 22.43 12.46 24.66 11.59C25.67 11.19 26.65 10.67 27.63 10.2L43.94 2.37C45.59 1.59 47.24 0.44 49.03 0.03C52.98 -0.37 53.77 2.56 55.08 5.28C56.14 7.45 57.22 9.61 58.24 11.79L62.12 11.77C66.06 11.77 66.6 14.47 66.56 17.68L66.55 20.67L72.84 20.65C76.45 20.64 79.56 23.07 80.3 26.58C80.56 27.79 80.49 29.07 80.49 30.3L80.49 50.47C86.09 51.62 85.37 55.85 85.38 60.19C85.38 62.55 85.46 64.93 85.36 67.28C85.26 69.77 83.2 72.4 80.49 72.27C80.49 75.11 80.56 77.9 80.58 80.71C80.61 84 77.97 87.23 74.69 87.83C73.27 88.09 71.69 87.96 70.25 87.96L36.57 87.96L10.11 87.96C3.24 87.96 0.02 86.53 0.01 79.13L0.01 32.03C0 27.34 -0.49 22.08 5.74 20.8C7.05 20.53 8.52 20.67 9.86 20.67L16.38 20.67ZM49.54 3.82C47.58 4.63 45.67 5.64 43.76 6.59L37 9.86C35.67 10.51 34.39 11.28 33.01 11.79L37.71 11.79L54.18 11.79L51.82 6.95C51.35 5.95 50.79 3.69 49.54 3.82ZM62.08 15.56C60.43 15.55 58.76 15.62 57.12 15.56C58.2 16.7 59.36 17.76 60.47 18.87C61.3 19.69 62.21 20.49 62.94 21.41C62.94 19.46 62.96 17.51 62.94 15.56C62.65 15.55 62.36 15.54 62.08 15.56ZM41.67 15.56L31.31 15.56C30.7 16.12 30.13 16.74 29.54 17.32L24.05 22.75C22.74 24.05 21.32 25.26 20.06 26.61C20.05 29.07 20.02 31.54 20.06 33.99L27.97 33.99C28.89 27.19 34.15 21.88 41.18 21.6C48.39 21.42 55.08 26.68 55.27 33.99L62.94 33.99L62.94 26.61C61.22 24.55 59.11 22.72 57.21 20.83C55.47 19.09 53.76 17.15 51.9 15.56L41.67 15.56ZM20.46 15.56C19.74 15.79 20.04 17.01 20.05 17.75L20.06 21.41C21.01 20.51 21.99 19.62 22.91 18.67C23.95 17.59 25.06 16.58 26.15 15.56L20.46 15.56ZM66.55 24.33L66.55 33.99L71.03 33.99C73.75 33.98 74.35 33.94 76.83 35.07C76.82 33.26 77.07 28.79 76.68 27.26C75.72 23.54 72.02 24.35 69.12 24.33C68.28 24.32 67.38 24.25 66.55 24.33ZM8.2 24.33C4.24 24.42 3.64 26.06 3.74 29.72C3.83 33.23 6.43 34 9.51 34L11.93 33.99L16.38 33.99L16.38 24.33L8.2 24.33ZM41.67 25.2C36.61 25.22 32.49 29.16 31.69 33.99L41.67 33.99L51.56 33.99C51.36 29.13 46.59 24.88 41.67 25.2ZM3.73 36.49L3.73 76.66C3.72 79.36 2.96 83.86 6.9 84.27C7.75 84.36 8.65 84.31 9.51 84.31L57.69 84.3C62.55 84.3 67.42 84.36 72.28 84.3C76.95 84.24 76.84 81.41 76.84 77.7L76.83 72.27L64.23 72.27L60.06 72.28C58.66 72.28 57.07 72.4 55.71 72.02C51.46 70.81 52.23 66.51 52.24 63.18L52.23 56.12C52.27 51.45 55.49 50.47 59.31 50.47L76.83 50.47L76.83 44.53C76.83 37.93 75.97 37.6 69.53 37.6L14.48 37.6C10.76 37.6 7.26 37.86 3.73 36.49ZM59.2 54.1C55.84 54.1 55.89 54.76 55.89 57.89L55.9 64.82C55.86 69.02 55.93 68.62 59.8 68.62L78.54 68.61C80 68.61 81.39 68.63 81.62 66.9C81.96 64.37 81.78 57.98 81.67 55.36C80.66 53.83 79.44 54.1 77.78 54.1L59.2 54.1Z" fill="#FFFFFF" fill-opacity="1.000000" fill-rule="nonzero"/>
	<path id="path" d="M64.51 66.05C58.14 66.79 56.85 57.62 63.2 56.58C69.23 55.84 70.77 64.89 64.51 66.05ZM63.49 60.25C62.18 60.95 62.65 62.56 64.23 62.37C65.42 61.61 64.87 60.15 63.49 60.25Z" fill="#FFFFFF" fill-opacity="1.000000" fill-rule="nonzero"/>
	<path id="path" d="M23.24 80.78C22.44 80.81 21.63 80.78 20.83 80.77L11.49 80.78C9.97 80.78 7.41 81.26 7.28 79.11C7.2 77.79 7.15 68.29 7.42 67.66C7.67 67.08 8.1 66.8 8.67 66.55C11.52 66.3 10.94 69.72 10.94 71.52L10.93 77.13L19.27 77.13C20.3 77.13 22.41 76.99 23.34 77.22C25.09 77.63 25.13 79.86 23.24 80.78Z" fill="#FFFFFF" fill-opacity="1.000000" fill-rule="nonzero"/>
</svg>
