<svg width="124.338379" height="88.000000" viewBox="0 0 124.338 88" fill="none" xmlns="http://www.w3.org/2000/svg" xmlns:xlink="http://www.w3.org/1999/xlink">
	<desc>
			Created with Pixso.
	</desc>
	<defs/>
	<path id="path" d="M10.1 4.98C8.05 7.03 10.3 10.19 8.58 12.33C7.69 13.44 5.97 13.5 4.93 12.54C3.79 11.48 4.33 9.76 4.35 8.4C4.39 5.76 3.91 4.27 6.24 1.9C7.83 0.28 9.74 0.02 11.9 0L79.29 0C84.26 0 84.71 0.4 84.71 5.82L84.7 10.64L96.74 10.63C101.14 10.63 102.96 9.49 105.52 13.2C110.91 21.01 116.39 28.75 121.69 36.62C122.88 38.38 124.2 39.16 124.29 41.42C124.38 43.79 124.31 46.2 124.31 48.58L124.31 68.21C124.33 72.02 124.17 75.51 119.56 76.94C116.97 77.75 109.61 77.2 106.5 77.31C102.87 91.83 83.01 90.93 79.79 77.31L47.79 77.31C46.26 86.53 35.91 90.46 27.79 86.4C24.07 84.55 21.94 81.17 20.66 77.31L14.26 77.32C12.73 77.32 11.09 77.44 9.59 77.1C4.16 75.87 4.34 70.78 4.33 66.53L4.33 53.2C4.33 51.74 3.99 49.72 5 48.51C6.85 46.29 9.25 48.3 9.28 51.31L9.27 64.52C9.27 67.05 8.42 70.94 10.58 72.46C11.7 72.52 12.85 72.46 13.99 72.46L20.66 72.46C22.46 57.05 45.69 56.43 48.19 72.46L79.55 72.46C81.07 58.47 103.29 55.08 106.8 72.46L116.63 72.49C119.94 72.51 119.54 69.64 119.53 67.17L119.52 43.53L86.29 43.53C79.27 43.55 79.78 43.23 79.79 36.85L79.79 4.98C77.78 5.03 75.77 4.98 73.76 4.98L15.21 4.98C13.51 4.98 11.8 4.93 10.1 4.98ZM84.9 15.62L84.75 15.71C84.63 16.54 84.7 17.43 84.7 18.26L84.7 38.59L116.74 38.59L116.86 38.48C111.79 30.76 106.11 23.29 101.18 15.62L84.9 15.62ZM92.61 65.64C81.76 66.18 81.51 83.22 93.91 83.11C107.15 80.44 101.91 63.88 92.61 65.64ZM33.43 65.64C21.7 66.83 23.56 83.87 35.24 83.11C47.23 81.51 44.85 64.54 33.43 65.64Z" fill="#FFFFFF" fill-opacity="1.000000" fill-rule="nonzero"/>
	<path id="path" d="M28.96 26.5C23.44 26.59 17.89 26.5 12.37 26.5L6.15 26.51C4.2 26.51 0.53 27.11 0.06 24.48C-0.23 22.82 0.99 21.75 2.53 21.55L25.41 21.55C26.79 21.55 28.86 21.24 30.08 22.01C32.19 23.33 31.16 26.13 28.96 26.5Z" fill="#FFFFFF" fill-opacity="1.000000" fill-rule="nonzero"/>
	<path id="path" d="M20.23 39.45C15.08 39.62 9.86 39.5 4.7 39.43C3.01 39.4 0.62 39.64 0.08 37.5C-0.32 35.95 0.76 34.71 2.23 34.42L14.55 34.42C16.28 34.42 18.45 34.27 20.13 34.42C23.3 34.7 23.19 38.93 20.23 39.45Z" fill="#FFFFFF" fill-opacity="1.000000" fill-rule="nonzero"/>
</svg>
