<svg width="124.254883" height="88.000000" viewBox="0 0 124.255 88" fill="none" xmlns="http://www.w3.org/2000/svg" xmlns:xlink="http://www.w3.org/1999/xlink">
	<desc>
			Created with Pixso.
	</desc>
	<defs/>
	<path id="path" d="M12.34 4.39L5.45 4.38C3.74 4.38 0.24 4.9 0.01 2.38C-0.16 0.61 1.42 0.09 2.87 0L13.11 0C17.5 -0.03 16.68 2.04 16.67 5.38C16.66 7.44 16.7 9.5 16.66 11.55L82.19 11.55C93.92 11.55 105.67 11.66 117.4 11.53C121.45 11.48 124.22 13.65 124.25 17.87L124.25 64.51C124.26 71.99 124.62 74.96 116.19 74.91L112.02 74.9L112.02 81.98C112.03 85.36 112.87 88.3 108.43 87.88L60.96 87.87C59.37 87.87 57.65 88.04 56.07 87.88C53.42 87.61 54.15 84.15 54.15 82.26L54.16 74.9L26.81 74.9L26.81 82.39C26.81 84.92 27.68 87.84 24.18 87.88C21.78 87.91 16.36 88.17 14.18 87.81C11.76 87.4 12.33 85 12.34 83.2L12.34 4.39ZM16.66 15.83L16.66 70.64L115.26 70.64C116.46 70.65 118.37 71.04 119.4 70.34C120.32 69.19 119.92 66.78 119.92 65.35L119.92 24.54C119.92 21.94 120.73 17.61 118.76 15.83C116.83 15.74 114.86 15.83 112.93 15.83L21.92 15.83C20.19 15.83 18.39 15.73 16.66 15.83ZM16.66 74.9L16.66 83.39L22.38 83.39L22.38 74.9C20.48 74.9 18.57 74.86 16.66 74.9ZM58.66 74.9C58.66 77.82 58.63 80.74 58.66 83.66L107.53 83.66C107.56 80.74 107.5 77.82 107.53 74.9L58.66 74.9Z" fill="#FFFFFF" fill-opacity="1.000000" fill-rule="nonzero"/>
	<path id="path" d="M30.11 24.74C29.21 24.83 23.26 24.81 22.55 24.65C20.13 24.09 20.55 21.37 22.38 20.41C23.71 20.35 29.21 20.27 30.22 20.55C32.32 21.13 32.23 23.81 30.11 24.74Z" fill="#FFFFFF" fill-opacity="1.000000" fill-rule="nonzero"/>
	<path id="path" d="M94.42 65.44C82.76 66.16 72.25 58.87 70.46 46.99C68.53 34.12 77.36 22.96 90.03 21.12C101.9 20.72 111.78 28.09 113.95 40C116.32 53.05 106.74 63.22 94.42 65.44ZM91.38 25.5C81.61 25.97 74.08 34.83 74.61 44.48C75.17 54.59 83.47 61.36 93.35 61.01C103.26 60.38 110.5 51.87 109.81 42.01C109.17 32.99 100.64 24.75 91.38 25.5Z" fill="#FFFFFF" fill-opacity="1.000000" fill-rule="nonzero"/>
	<path id="path" d="M90.03 36.36C90.03 33.94 89.09 28.93 91.87 28.07C94.58 27.93 94.44 30.32 94.43 32.34L94.42 36.36C96.56 37 98.35 38.75 99.09 40.85C100.75 40.85 104.06 40.65 105.57 41.04C107.12 41.43 107.96 43.35 106.68 44.58C105.72 45.5 104.27 45.28 103.06 45.28L99.09 45.26C98.53 47.79 96.67 49.12 94.42 50.16C94.43 52.56 95.35 57.63 92.7 58.55C89.82 58.87 90.01 56.06 90.02 54.04L90.03 50.16C87.79 49.46 85.78 47.66 85.38 45.26C83.89 45.26 80.22 45.46 78.99 45.2C77.37 44.85 76.51 42.85 77.8 41.59C79.15 40.26 83.6 40.85 85.38 40.85C86.54 38.77 87.69 37.16 90.03 36.36ZM92.26 40.47C88.35 40.97 88.35 45.79 92.26 46.16C96.19 45.68 95.78 40.32 92.26 40.47Z" fill="#FFFFFF" fill-opacity="1.000000" fill-rule="nonzero"/>
	<path id="path" d="M29.63 33.8L25.64 33.8C24.74 33.8 23.77 33.88 22.89 33.73C20.07 33.27 20.45 29.63 23.27 29.43L27.51 29.42C28.36 29.42 29.31 29.36 30.15 29.51C32.59 29.97 31.97 33.54 29.63 33.8Z" fill="#FFFFFF" fill-opacity="1.000000" fill-rule="nonzero"/>
	<path id="path" d="M41.67 35.87C41.68 33.51 40.85 30.45 43.62 29.43C47.02 29.73 46.11 33.49 46.11 35.87C46.89 36.37 50.54 40.03 51.17 40.85C52.2 40.77 55.63 40.71 56.44 40.88C58.79 41.37 58.81 44.68 56.7 45.18C55.59 45.45 52.52 45.27 51.17 45.27C49.5 46.9 47.88 48.65 46.11 50.16C46.27 51.95 46.7 54.69 45.11 55.95C41.08 57.62 41.67 52.33 41.67 50.16C40.48 48.7 38.38 46.51 36.99 45.27C35.52 45.26 32.54 45.63 31.44 44.71C30.18 43.67 30.53 41.46 32.14 40.98C33.27 40.63 35.68 40.88 36.99 40.85C37.56 40.04 38.33 39.34 39.02 38.62L41.67 35.87ZM44.1 39.95C42.98 40.79 42.01 41.86 41.03 42.85C42.02 43.97 43.05 45.09 44.1 46.16C45.09 45.07 46.2 44 47.1 42.85C46.6 42.38 44.41 40.06 44.1 39.95Z" fill="#FFFFFF" fill-opacity="1.000000" fill-rule="nonzero"/>
	<path id="path" d="M30.11 57.17C28.13 57.37 21.89 57.66 21.14 55.92C20.55 54.56 21.41 53.24 22.7 52.81L27.24 52.8C28.1 52.8 29.03 52.73 29.88 52.87C32.38 53.26 31.73 56.14 30.11 57.17Z" fill="#FFFFFF" fill-opacity="1.000000" fill-rule="nonzero"/>
	<path id="path" d="M29.63 65.84L25.36 65.85C23.9 65.85 21.22 66.11 20.99 64.08C20.8 62.47 21.78 61.61 23.27 61.46C25.42 61.36 31.21 60.77 31.55 63.23C31.73 64.6 30.97 65.65 29.63 65.84Z" fill="#FFFFFF" fill-opacity="1.000000" fill-rule="nonzero"/>
</svg>
