<svg width="75.387207" height="88.778809" viewBox="0 0 75.3872 88.7788" fill="none" xmlns="http://www.w3.org/2000/svg" xmlns:xlink="http://www.w3.org/1999/xlink">
	<desc>
			Created with Pixso.
	</desc>
	<defs/>
	<path id="path" d="M37.67 88.77C37.29 88.76 33.07 87.05 32.31 86.74C17.6 80.86 1.87 68.19 0.14 51.32C-0.06 49.42 0.03 47.49 0.03 45.58L0.03 22C0.03 19.82 -0.05 17.61 0.02 15.43C0.08 13.56 1.24 13.14 2.93 12.87C14.16 11.08 25.25 7.54 35.01 1.64C35.91 1.09 36.68 0.38 37.67 0C38.12 0 38.79 0.7 39.15 0.95C47.6 6.94 60.61 10.91 70.58 12.56C72.23 12.83 74.34 12.57 75.14 14.39C75.56 15.37 75.31 19.23 75.31 20.43L75.31 41.8C75.31 51.47 75.35 57.07 69.78 65.77C63.22 76 52.69 82.99 41.5 87.31C40.23 87.81 38.94 88.25 37.67 88.77ZM37.67 5.6C36.83 6.03 36.04 6.53 35.23 6.99C26.49 11.92 16.72 15.06 6.89 16.89C6.14 17.03 5.37 17.13 4.62 17.29C4.58 19.45 4.62 21.62 4.62 23.79L4.62 44.61C4.62 51.24 4.88 54.79 8.02 60.8C13.37 71.06 23.82 78.43 34.42 82.47C35.29 82.81 36.77 83.63 37.67 83.6C39.1 83.2 40.52 82.52 41.9 81.97C51.77 78.04 61.14 71.39 66.43 62.01C70.65 54.53 70.67 49.52 70.67 41.19L70.67 18.57C70.67 18.15 70.71 17.7 70.67 17.29C60.78 15.47 51.41 13.11 42.46 8.27C42.01 8.03 37.77 5.6 37.67 5.6Z" fill="#FFFFFF" fill-opacity="1.000000" fill-rule="nonzero"/>
	<path id="path" d="M31.7 61.76C30.75 61.44 29.73 60.96 28.93 60.37C28.14 60.87 29.91 62.27 24.91 62.24L20.41 62.24C15.39 62.24 14.88 62.8 14.88 57.28L14.89 42.05C14.88 36.76 13.6 35.14 19.81 35.42C21.52 35.5 23.3 35.58 25 35.29C31.77 34.17 36.59 29.82 38.82 23.46C39.67 21.03 39.97 19.53 42.95 19.05C46.69 18.67 47.62 20.88 48.5 23.72C49.83 28.01 49.93 30.86 48.82 35.24C50.71 35.23 53.03 35.04 54.85 35.57C59.22 36.86 61.32 41.62 60.02 45.85C59.27 48.28 56.63 56.62 55.43 58.51C53.19 62.05 50.35 62.24 46.7 62.24L36.98 62.24C35.13 62.24 33.47 62.32 31.7 61.76ZM43.6 23.9C40.83 31.39 36.99 36.63 28.84 39.08L28.84 48.4C28.84 49.56 28.7 52.4 28.96 53.42C29.56 55.7 32.72 57.65 34.93 57.63L42.95 57.61C44.42 57.61 48.18 57.76 49.38 57.45C51.98 56.78 52.32 53.58 53.08 51.43L54.66 46.95C55.37 44.93 56.56 42.47 54.65 40.67C53.45 39.55 51.71 39.82 50.2 39.83L46.43 39.83C41.88 39.83 42.46 37.93 43.86 34.9C45.03 32.35 45.25 26.27 43.6 23.9ZM19.33 40.1L19.33 57.61C20.94 57.71 22.59 57.57 24.21 57.61L24.21 40.1L21.27 40.09C20.62 40.09 19.98 40.05 19.33 40.1Z" fill="#FFFFFF" fill-opacity="1.000000" fill-rule="nonzero"/>
</svg>
