<svg width="24.000000" height="24.000000" viewBox="0 0 24 24" fill="none" xmlns="http://www.w3.org/2000/svg" xmlns:xlink="http://www.w3.org/1999/xlink">
	<desc>
			Created with Pixso.
	</desc>
	<defs>
		<clipPath id="clip222_1741">
			<rect id="Корзина 1" width="24.000000" height="24.000000" fill="white" fill-opacity="0"/>
		</clipPath>
	</defs>
	<g clip-path="url(#clip222_1741)">
		<circle id="circle" cx="10.250000" cy="20.750000" r="1.750000" fill="#FFFFFF" fill-opacity="1.000000"/>
		<circle id="circle" cx="18.750000" cy="20.750000" r="1.750000" fill="#FFFFFF" fill-opacity="1.000000"/>
		<path id="path" d="M2.11 3.61L2.08 3.62C1.73 3.39 1.64 2.93 1.87 2.58C2.1 2.23 2.56 2.14 2.91 2.37L2.92 2.4L2.11 3.61ZM12.51 9.23L12.5 9.25C12.08 9.25 11.75 8.92 11.75 8.5C11.75 8.07 12.08 7.75 12.5 7.75L12.51 7.76L12.51 9.23Z" fill="#000000" fill-opacity="0" fill-rule="nonzero"/>
		<path id="path" d="M2.5 3L7 6L9.5 17L19.5 17L22 8.5L12.5 8.5" stroke="#FFFFFF" stroke-opacity="1.000000" stroke-width="1.500000" stroke-linejoin="round" stroke-linecap="round"/>
	</g>
</svg>
