<svg width="15.000000" height="15.000000" viewBox="0 0 15 15" fill="none" xmlns="http://www.w3.org/2000/svg" xmlns:xlink="http://www.w3.org/1999/xlink">
	<desc>
			Created with Pixso.
	</desc>
	<defs/>
	<circle id="Эллипс 28" cx="7.499023" cy="7.500000" r="2.714286" stroke="#FFFFFF" stroke-opacity="1.000000" stroke-width="1.000000"/>
	<path id="Форма 14" d="M9.4 1.4L9.55 2.54L10.46 1.84L10.84 1.55C11.27 1.22 11.87 1.26 12.25 1.64L13.35 2.74C13.73 3.12 13.77 3.72 13.44 4.15L12.45 5.44L13.59 5.59L14.07 5.66C14.6 5.73 15 6.18 15 6.72L15 8.27C15 8.81 14.6 9.26 14.07 9.33L13.59 9.4L12.45 9.55L13.15 10.46L13.44 10.84C13.77 11.27 13.73 11.87 13.35 12.25L12.25 13.35C11.87 13.73 11.27 13.77 10.84 13.44L10.46 13.15L9.55 12.45L9.4 13.59L9.33 14.07C9.26 14.6 8.81 15 8.27 15L6.72 15C6.18 15 5.73 14.6 5.66 14.07L5.59 13.59L5.44 12.45L4.53 13.15L4.15 13.44C3.72 13.77 3.12 13.73 2.74 13.35L1.64 12.25C1.26 11.87 1.22 11.27 1.55 10.84L1.84 10.46L2.54 9.55L1.4 9.4L0.92 9.33C0.39 9.26 0 8.81 0 8.27L0 6.72C0 6.18 0.39 5.73 0.92 5.66L1.4 5.59L2.54 5.44L1.84 4.53L1.55 4.15C1.22 3.72 1.26 3.12 1.64 2.74L2.74 1.64C3.12 1.26 3.72 1.22 4.15 1.55L5.44 2.54L5.59 1.4L5.66 0.92C5.73 0.39 6.18 0 6.72 0L8.27 0C8.81 0 9.26 0.39 9.33 0.92L9.4 1.4ZM8.51 2.29L8.56 2.67L8.65 3.34L9.25 3.26L9.62 3.74L10.16 3.33L10.46 3.1L10.63 3.08L10.62 2.98L11.45 2.34C11.46 2.34 11.46 2.33 11.47 2.33C11.48 2.33 11.49 2.33 11.5 2.33C11.51 2.33 11.51 2.33 11.52 2.34C11.53 2.34 11.54 2.34 11.54 2.35L12.64 3.45C12.65 3.45 12.65 3.46 12.65 3.47C12.66 3.48 12.66 3.48 12.66 3.49C12.66 3.5 12.66 3.51 12.66 3.52C12.66 3.53 12.65 3.53 12.65 3.54L12.01 4.37L11.91 4.36L11.89 4.53L11.66 4.83L11.25 5.37L11.73 5.74L11.65 6.34L12.32 6.43L12.7 6.48L12.83 6.59L12.89 6.51L13.93 6.65C13.94 6.65 13.95 6.65 13.96 6.66C13.96 6.66 13.97 6.66 13.98 6.67C13.98 6.68 13.99 6.69 13.99 6.69C13.99 6.7 14 6.71 14 6.72L14 8.27C14 8.28 13.99 8.29 13.99 8.3C13.99 8.3 13.98 8.31 13.98 8.32C13.97 8.33 13.96 8.33 13.96 8.33C13.95 8.34 13.94 8.34 13.93 8.34L12.9 8.48L12.84 8.4L12.7 8.51L12.32 8.56L11.65 8.65L11.73 9.25L11.25 9.62L11.66 10.16L11.89 10.46L11.91 10.63L12.01 10.62L12.65 11.45C12.65 11.46 12.66 11.46 12.66 11.47C12.66 11.48 12.66 11.49 12.66 11.5C12.66 11.5 12.66 11.51 12.66 11.52C12.65 11.53 12.65 11.54 12.64 11.54L11.54 12.64C11.54 12.65 11.53 12.65 11.52 12.66C11.51 12.66 11.5 12.66 11.5 12.66C11.49 12.66 11.48 12.66 11.47 12.66C11.46 12.66 11.46 12.65 11.45 12.65L10.62 12.01L10.63 11.91L10.46 11.89L10.16 11.66L9.62 11.25L9.25 11.73L8.65 11.65L8.56 12.32L8.51 12.7L8.4 12.84L8.48 12.89L8.34 13.93C8.34 13.94 8.34 13.95 8.33 13.96C8.33 13.96 8.33 13.97 8.32 13.98C8.31 13.98 8.3 13.99 8.3 13.99C8.29 13.99 8.28 14 8.27 14L6.72 14C6.71 14 6.7 13.99 6.69 13.99C6.69 13.99 6.68 13.98 6.67 13.98C6.66 13.97 6.66 13.96 6.66 13.96C6.65 13.95 6.65 13.94 6.65 13.93L6.51 12.89L6.59 12.84L6.48 12.7L6.43 12.32L6.34 11.65L5.74 11.73L5.37 11.25L4.83 11.66L4.53 11.89L4.36 11.91L4.37 12.01L3.54 12.65C3.54 12.65 3.53 12.66 3.52 12.66C3.51 12.66 3.5 12.66 3.49 12.66C3.49 12.66 3.48 12.66 3.47 12.66C3.46 12.65 3.45 12.65 3.45 12.64L2.35 11.54C2.34 11.54 2.34 11.53 2.33 11.52C2.33 11.51 2.33 11.5 2.33 11.5C2.33 11.49 2.33 11.48 2.33 11.47C2.33 11.46 2.34 11.46 2.34 11.45L2.98 10.62L3.08 10.63L3.1 10.46L3.33 10.16L3.74 9.62L3.26 9.25L3.34 8.65L2.67 8.56L2.29 8.51L2.16 8.4L2.1 8.48L1.06 8.34C1.05 8.34 1.04 8.34 1.03 8.33C1.03 8.33 1.02 8.33 1.01 8.32C1.01 8.31 1 8.3 1 8.3C1 8.29 1 8.28 1 8.27L1 6.72C1 6.71 1 6.7 1 6.69C1 6.69 1.01 6.68 1.01 6.67C1.02 6.66 1.03 6.66 1.03 6.66C1.04 6.65 1.05 6.65 1.06 6.65L2.09 6.51L2.15 6.59L2.29 6.48L2.67 6.43L2.64 6.22L2.64 6.22L2.67 6.43L3.34 6.34L3.26 5.74L3.74 5.37L3.33 4.83L3.1 4.53L3.08 4.36L2.98 4.37L2.34 3.54C2.34 3.53 2.33 3.53 2.33 3.52C2.33 3.51 2.33 3.5 2.33 3.49C2.33 3.48 2.33 3.48 2.33 3.47C2.34 3.46 2.34 3.45 2.35 3.45L3.45 2.35C3.45 2.34 3.46 2.34 3.47 2.34C3.48 2.33 3.48 2.33 3.49 2.33C3.5 2.33 3.51 2.33 3.52 2.33C3.53 2.33 3.53 2.34 3.54 2.34L4.37 2.98L4.36 3.08L4.53 3.1L4.83 3.33L5.37 3.74L5.74 3.26L6.34 3.34L6.43 2.67L6.48 2.29L6.59 2.15L6.51 2.1L6.65 1.06C6.65 1.05 6.65 1.04 6.66 1.03C6.66 1.03 6.66 1.02 6.67 1.01C6.68 1.01 6.69 1 6.69 1C6.7 1 6.71 1 6.72 1L8.27 1C8.28 1 8.29 1 8.3 1C8.3 1 8.31 1.01 8.32 1.01C8.33 1.02 8.33 1.03 8.33 1.03C8.34 1.04 8.34 1.05 8.34 1.06L8.48 2.1L8.4 2.15L8.51 2.29Z" fill="#FFFFFF" fill-opacity="1.000000" fill-rule="evenodd"/>
</svg>
