<svg width="15.503906" height="15.501099" viewBox="0 0 15.5039 15.5011" fill="none" xmlns="http://www.w3.org/2000/svg" xmlns:xlink="http://www.w3.org/1999/xlink">
	<desc>
			Created with Pixso.
	</desc>
	<defs/>
	<path id="path" d="" fill="#000000" fill-opacity="0" fill-rule="nonzero"/>
	<path id="path" d="M14.44 6.68C14.54 6.02 14.51 5.37 14.35 4.73C14.25 4.3 14.09 3.9 13.88 3.52C13.66 3.12 13.39 2.76 13.07 2.44C12.76 2.12 12.41 1.85 12.02 1.63C11.64 1.41 11.25 1.25 10.83 1.14C10.2 0.98 9.57 0.95 8.93 1.05L8.78 0.06C9.55 -0.06 10.32 -0.02 11.08 0.18C11.58 0.3 12.06 0.5 12.51 0.76C12.98 1.02 13.41 1.35 13.79 1.74C14.17 2.13 14.49 2.56 14.75 3.03C15.01 3.49 15.2 3.98 15.32 4.49C15.51 5.26 15.55 6.04 15.44 6.82L14.44 6.68ZM15.42 6.8L15.44 6.82C15.39 7.1 15.14 7.28 14.87 7.24C14.59 7.2 14.41 6.95 14.44 6.68L14.47 6.66L15.42 6.8ZM8.94 1.03L8.93 1.05C8.65 1.09 8.4 0.91 8.36 0.63C8.32 0.35 8.5 0.1 8.78 0.06L8.8 0.08L8.94 1.03Z" fill="#FFFFFF" fill-opacity="1.000000" fill-rule="evenodd"/>
	<path id="path" d="" fill="#000000" fill-opacity="0" fill-rule="nonzero"/>
	<path id="path" d="M11.32 6.34C11.37 6.03 11.34 5.72 11.25 5.42C11.15 5.11 10.99 4.84 10.76 4.61C10.54 4.38 10.27 4.22 9.97 4.12C9.68 4.03 9.39 4 9.08 4.05L8.93 3.06C9.39 2.99 9.84 3.03 10.28 3.17C10.74 3.32 11.14 3.57 11.48 3.91C11.82 4.26 12.06 4.66 12.2 5.12C12.34 5.57 12.38 6.02 12.31 6.48L11.32 6.34ZM12.29 6.46L12.31 6.48C12.27 6.76 12.02 6.95 11.74 6.91C11.47 6.87 11.28 6.62 11.32 6.34L11.34 6.32L12.29 6.46ZM9.1 4.03L9.08 4.05C8.8 4.09 8.55 3.91 8.51 3.63C8.47 3.35 8.66 3.1 8.93 3.06L8.96 3.08L9.1 4.03Z" fill="#FFFFFF" fill-opacity="1.000000" fill-rule="evenodd"/>
	<path id="path" d="M3.66 1.8C3.96 1.8 4.23 1.97 4.38 2.23L5.38 4.08C5.51 4.32 5.52 4.61 5.4 4.86L4.43 6.83C4.43 6.83 4.71 8.3 5.89 9.5C7.07 10.7 8.5 10.98 8.5 10.98L10.44 9.99C10.69 9.87 10.98 9.87 11.21 10.01L13.03 11.04C13.29 11.19 13.46 11.47 13.46 11.77L13.46 13.9C13.46 14.98 12.47 15.76 11.46 15.41C9.39 14.7 6.18 13.35 4.14 11.28C2.1 9.21 0.78 5.94 0.08 3.83C-0.26 2.81 0.5 1.8 1.57 1.8L3.66 1.8Z" fill="#000000" fill-opacity="0" fill-rule="nonzero"/>
	<path id="path" d="M4.43 6.83L5.4 4.86C5.52 4.61 5.51 4.32 5.38 4.08L4.38 2.23C4.23 1.97 3.96 1.8 3.66 1.8L1.57 1.8C0.5 1.8 -0.26 2.81 0.08 3.83C0.78 5.94 2.1 9.21 4.14 11.28C6.18 13.35 9.39 14.7 11.46 15.41C12.47 15.76 13.46 14.98 13.46 13.9L13.46 11.77C13.46 11.47 13.29 11.19 13.03 11.04L11.21 10.01C10.98 9.87 10.69 9.87 10.44 9.99L8.5 10.98C8.5 10.98 7.07 10.7 5.89 9.5C4.71 8.3 4.43 6.83 4.43 6.83ZM3.55 2.8L1.57 2.8C1.49 2.8 1.42 2.81 1.35 2.84C1.33 2.85 1.31 2.86 1.29 2.86C1.25 2.89 1.21 2.91 1.17 2.94C1.15 2.97 1.12 3 1.1 3.03C1.05 3.09 1.02 3.16 1 3.23C0.98 3.32 0.99 3.42 1.03 3.52C1.46 4.83 1.95 6.03 2.5 7.12C3.23 8.57 4.02 9.73 4.85 10.58C5.69 11.43 6.82 12.23 8.25 12.97C9.32 13.53 10.5 14.02 11.78 14.47C11.87 14.5 11.95 14.5 12.03 14.49C12.1 14.48 12.16 14.45 12.23 14.4C12.24 14.38 12.26 14.37 12.27 14.36C12.32 14.31 12.36 14.26 12.39 14.2C12.39 14.18 12.4 14.17 12.41 14.16C12.44 14.08 12.46 13.99 12.46 13.9L12.46 11.86L10.81 10.93L8.96 11.87C8.86 11.92 8.75 11.95 8.64 11.97C8.53 11.98 8.42 11.98 8.31 11.96C8.22 11.94 8.11 11.91 7.98 11.88C7.73 11.8 7.49 11.71 7.24 11.61C6.6 11.33 6.03 10.98 5.53 10.54C5.41 10.43 5.29 10.32 5.17 10.2C5.11 10.14 5.05 10.08 5 10.01C4.5 9.46 4.1 8.83 3.8 8.11C3.69 7.85 3.6 7.6 3.53 7.36C3.49 7.22 3.46 7.11 3.45 7.02C3.43 6.91 3.42 6.81 3.44 6.7C3.45 6.59 3.48 6.49 3.53 6.39L4.47 4.49L3.55 2.8Z" fill="#FFFFFF" fill-opacity="1.000000" fill-rule="evenodd"/>
</svg>
