<svg width="15.000000" height="15.000000" viewBox="0 0 15 15" fill="none" xmlns="http://www.w3.org/2000/svg" xmlns:xlink="http://www.w3.org/1999/xlink">
	<desc>
			Created with Pixso.
	</desc>
	<defs/>
	<path id="Гарантия" d="M0.2 2.9C0.2 2.9 2.37 2.72 4.2 2C6.02 1.27 7.49 0 7.49 0C7.49 0 9.37 1.27 11.2 2C13.03 2.72 14.8 2.9 14.8 2.9C14.8 2.9 15.65 5.56 13.82 9.19C12 12.82 7.49 15 7.49 15C7.49 15 2.99 12.82 1.17 9.19C-0.66 5.56 0.2 2.9 0.2 2.9ZM1.04 3.81C1.01 4.08 0.99 4.37 1 4.67C1 5.25 1.08 5.84 1.22 6.45C1.4 7.22 1.68 7.98 2.06 8.74C2.43 9.48 2.96 10.22 3.65 10.94C4.21 11.53 4.87 12.1 5.61 12.65C6.14 13.04 6.69 13.4 7.26 13.73C7.34 13.78 7.42 13.82 7.49 13.86C7.57 13.82 7.64 13.78 7.73 13.73C8.3 13.4 8.85 13.04 9.38 12.65C10.12 12.1 10.78 11.53 11.34 10.94C12.02 10.22 12.55 9.48 12.93 8.74C13.31 7.98 13.59 7.21 13.77 6.45C13.91 5.84 13.99 5.25 13.99 4.67C14 4.36 13.98 4.06 13.95 3.79C13.8 3.76 13.65 3.73 13.49 3.7C12.53 3.51 11.65 3.25 10.83 2.92C10.02 2.6 9.13 2.16 8.16 1.59C7.94 1.46 7.74 1.34 7.55 1.22C7.41 1.33 7.25 1.44 7.1 1.55C6.24 2.14 5.4 2.59 4.57 2.92C3.75 3.25 2.78 3.51 1.68 3.7C1.47 3.74 1.25 3.78 1.04 3.81Z" fill="#FFFFFF" fill-opacity="1.000000" fill-rule="evenodd"/>
</svg>
