<svg width="31.287109" height="31.287567" viewBox="0 0 31.2871 31.2876" fill="none" xmlns="http://www.w3.org/2000/svg" xmlns:xlink="http://www.w3.org/1999/xlink">
	<desc>
			Created with Pixso.
	</desc>
	<defs>
		<clipPath id="clip501_4404">
			<rect id="instagram" width="31.287554" height="31.287558" fill="white" fill-opacity="0"/>
		</clipPath>
	</defs>
	<g clip-path="url(#clip501_4404)">
		<ellipse id="Эллипс 21" cx="15.643555" cy="15.643768" rx="15.643777" ry="15.643779" fill="#9F0E0E" fill-opacity="1.000000"/>
		<path id="Убрать верхний слой" d="M11.1143 7.28525L20.5957 7.28525C22.6904 7.28525 24.3887 8.98318 24.3887 11.0777L24.3887 20.5587C24.3887 22.6533 22.6904 24.3512 20.5957 24.3512L11.1143 24.3512C9.02051 24.3512 7.32227 22.6533 7.32227 20.5587L7.32227 11.0777C7.32227 8.98318 9.02051 7.28525 11.1143 7.28525ZM22.0029 10.6036C22.0029 11.1273 21.5781 11.5517 21.0547 11.5517C20.5312 11.5517 20.1064 11.1273 20.1064 10.6036C20.1064 10.08 20.5312 9.65552 21.0547 9.65552C21.5781 9.65552 22.0029 10.08 22.0029 10.6036ZM19.6465 15.8182C19.6465 17.9127 17.9492 19.6107 15.8545 19.6107C13.7598 19.6107 12.0615 17.9127 12.0615 15.8182C12.0615 13.7237 13.7598 12.0258 15.8545 12.0258C17.9492 12.0258 19.6465 13.7237 19.6465 15.8182Z" clip-rule="evenodd" fill="#FFFFFF" fill-opacity="1.000000" fill-rule="evenodd"/>
	</g>
</svg>
