<svg width="115.000000" height="24.000000" viewBox="0 0 115 24" fill="none" xmlns="http://www.w3.org/2000/svg" xmlns:xlink="http://www.w3.org/1999/xlink">
	<desc>
			Created with Pixso.
	</desc>
	<defs/>
	<path id="ЛОГО" d="M14.27 17.81L6.88 17.81L9.55 1.77C9.71 0.77 9.43 0.41 8.45 0.41L4.97 0.41C3.98 0.41 3.61 0.77 3.46 1.77L0.04 22.14C-0.12 23.15 0.13 23.5 1.11 23.5L13.32 23.5C14.3 23.5 14.64 23.15 14.86 22.14L15.35 19.18C15.5 18.14 15.25 17.81 14.27 17.81ZM17.94 13C18.68 8.62 21.81 6.16 26.69 6.16C31.27 6.16 33.85 8.3 33.36 12.16C32.9 15.14 30.44 16.86 26.51 16.86C25.44 16.86 24.3 16.79 23.04 16.66L22.92 17.34C22.7 18.74 23.25 19.42 24.57 19.42C25.65 19.42 26.54 19.03 27.24 18.25C27.83 17.6 28.13 17.44 29.03 17.93L31.02 19C31.76 19.42 31.85 20.04 31.3 20.88C29.86 22.96 27.37 24 23.84 24C18.59 24 16.59 20.91 17.36 16.37L17.94 13ZM26.08 10.44C24.79 10.44 24.02 11.12 23.74 12.45L23.65 12.8C24.42 12.9 25.12 12.97 25.77 12.97C26.97 12.97 27.64 12.58 27.77 11.77C27.89 10.89 27.34 10.44 26.08 10.44ZM49.49 6.64C50.62 6.64 50.74 6.93 50.22 8.07L42.91 22.4C42.45 23.21 41.99 23.5 41.13 23.5L37.75 23.5C36.87 23.5 36.46 23.21 36.31 22.4L34.01 8.07C33.85 6.93 34.1 6.64 35.21 6.64L38.09 6.64C39.41 6.64 39.75 6.87 39.78 7.88L40.46 13.52C40.55 14.68 40.49 16.02 40.39 16.95L40.3 17.64L40.55 17.64C40.88 16.02 41.32 14.65 41.78 13.52L44.24 7.91C44.72 6.84 44.97 6.65 46.29 6.65L49.49 6.64ZM50.48 13C51.22 8.62 54.35 6.16 59.23 6.16C63.81 6.16 66.39 8.3 65.9 12.16C65.44 15.14 62.98 16.86 59.05 16.86C57.98 16.86 56.84 16.79 55.58 16.66L55.46 17.34C55.24 18.74 55.79 19.42 57.11 19.42C58.19 19.42 59.08 19.03 59.78 18.25C60.37 17.6 60.67 17.44 61.57 17.93L63.56 19C64.3 19.42 64.39 20.04 63.84 20.88C62.4 22.96 59.91 24 56.38 24C51.13 24 49.13 20.91 49.9 16.37L50.48 13ZM58.62 10.44C57.33 10.44 56.56 11.12 56.28 12.45L56.19 12.8C56.96 12.9 57.66 12.97 58.31 12.97C59.51 12.97 60.18 12.58 60.31 11.77C60.43 10.89 59.88 10.44 58.62 10.44ZM94.12 9.08C93.3 14.11 89.92 16.6 85.01 16.6L81.27 16.6L80.35 22.14C80.12 23.14 79.79 23.52 78.81 23.52L75.33 23.52C74.36 23.52 74.05 23.14 74.26 22.14L74.45 20.96C74.49 20.73 74.6 20.52 74.77 20.37L85.25 11.21L86.2 13.89C86.31 14.2 86.74 14.19 86.83 13.87L89.5 4.67C89.61 4.27 89.29 3.88 88.9 3.94L79.92 5.38C79.61 5.43 79.53 5.88 79.81 6.04L82.22 7.43L76.34 12.54C76.14 12.71 75.85 12.53 75.9 12.27L77.63 1.83C77.84 0.83 78.2 0.48 79.17 0.48L87.64 0.48C90.05 0.48 91.82 1.26 93 2.8C94.15 4.4 94.53 6.48 94.12 9.08ZM96.44 8.62C97.33 3.04 101.23 0 107.28 0C111.7 0 114.25 1.91 114.93 5.77C115.14 6.71 114.86 7.23 113.88 7.52L110.72 8.65C109.74 8.94 109.4 8.78 109.18 7.78C108.91 6.32 108.11 5.67 106.39 5.67C104.03 5.67 102.83 6.74 102.46 9.04L101.45 14.94C101.08 17.25 101.91 18.32 104.27 18.32C105.9 18.32 107.07 17.6 107.81 16.21C108.39 15.17 108.75 14.98 109.62 15.33L112.81 16.63C113.61 16.92 113.79 17.51 113.33 18.38C111.4 22.11 108.11 23.99 103.41 23.99C100.43 23.99 98.25 23.15 96.87 21.43C95.46 19.71 94.96 17.44 95.43 14.62L96.44 8.62ZM73.78 0.49L70.43 0.49C69.54 0.49 69.17 0.82 69.02 1.72L65.8 21.05C65.76 21.32 66.05 21.5 66.25 21.33L72.12 16.22C72.29 16.07 72.41 15.86 72.45 15.64L74.76 1.73C74.91 0.82 74.67 0.49 73.78 0.49Z" fill="#DE2626" fill-opacity="1.000000" fill-rule="nonzero"/>
</svg>
