<svg width="24.000000" height="24.000000" viewBox="0 0 24 24" fill="none" xmlns="http://www.w3.org/2000/svg" xmlns:xlink="http://www.w3.org/1999/xlink">
	<desc>
			Created with Pixso.
	</desc>
	<defs>
		<clipPath id="clip917_10838">
			<rect id="Заменить" width="24.000000" height="24.000000" fill="white" fill-opacity="0"/>
		</clipPath>
	</defs>
	<g clip-path="url(#clip917_10838)">
		<path id="path" d="M9.01 16.23L9 16.25C8.58 16.25 8.25 15.92 8.25 15.5C8.25 15.08 8.58 14.75 9 14.75L9.01 14.77L9.01 16.23ZM18.26 2.52L18.25 2.5C18.25 2.08 18.58 1.75 19 1.75C19.41 1.75 19.75 2.08 19.75 2.5L19.73 2.52L18.26 2.52Z" fill="#000000" fill-opacity="0" fill-rule="nonzero"/>
		<path id="path" d="M9 15.5L19 15.5L19 2.5" stroke="#FFFFFF" stroke-opacity="1.000000" stroke-width="1.500000" stroke-linejoin="round" stroke-linecap="round"/>
		<path id="path" d="M14.98 9.77L15 9.75C15.41 9.75 15.75 10.08 15.75 10.5C15.75 10.92 15.41 11.25 15 11.25L14.98 11.23L14.98 9.77ZM5.73 21.48L5.75 21.5C5.75 21.92 5.41 22.25 5 22.25C4.58 22.25 4.25 21.92 4.25 21.5L4.26 21.48L5.73 21.48Z" fill="#000000" fill-opacity="0" fill-rule="nonzero"/>
		<path id="path" d="M15 10.5L5 10.5L5 21.5" stroke="#FFFFFF" stroke-opacity="1.000000" stroke-width="1.500000" stroke-linejoin="round" stroke-linecap="round"/>
		<path id="path" d="M22.5 4.96L22.53 4.96C22.82 5.26 22.82 5.73 22.53 6.03C22.23 6.32 21.76 6.32 21.46 6.03L21.46 6L22.5 4.96ZM16.53 6L16.53 6.03C16.23 6.32 15.76 6.32 15.46 6.03C15.17 5.73 15.17 5.26 15.46 4.96L15.49 4.96L16.53 6Z" fill="#000000" fill-opacity="0" fill-rule="nonzero"/>
		<path id="path" d="M22 5.5L19 2.5L16 5.5" stroke="#FFFFFF" stroke-opacity="1.000000" stroke-width="1.500000" stroke-linejoin="round" stroke-linecap="round"/>
		<path id="path" d="M7.46 17.99L7.46 17.96C7.76 17.67 8.23 17.67 8.53 17.96C8.82 18.26 8.82 18.73 8.53 19.03L8.5 19.03L7.46 17.99ZM1.49 19.03L1.46 19.03C1.17 18.73 1.17 18.26 1.46 17.96C1.76 17.67 2.23 17.67 2.53 17.96L2.53 17.99L1.49 19.03Z" fill="#000000" fill-opacity="0" fill-rule="nonzero"/>
		<path id="path" d="M8 18.5L5 21.5L2 18.5" stroke="#FFFFFF" stroke-opacity="1.000000" stroke-width="1.500000" stroke-linejoin="round" stroke-linecap="round"/>
	</g>
</svg>
