<svg width="20.000000" height="20.000000" viewBox="0 0 20 20" fill="none" xmlns="http://www.w3.org/2000/svg" xmlns:xlink="http://www.w3.org/1999/xlink">
	<desc>
			Created with Pixso.
	</desc>
	<defs>
		<clipPath id="clip222_1751">
			<rect id="Поиск" width="20.000000" height="20.000000" fill="white" fill-opacity="0"/>
		</clipPath>
	</defs>
	<g clip-path="url(#clip222_1751)">
		<path id="path" d="M8.74 15.83C12.66 15.83 15.83 12.66 15.83 8.75C15.83 4.83 12.66 1.66 8.74 1.66C4.83 1.66 1.66 4.83 1.66 8.75C1.66 12.66 4.83 15.83 8.74 15.83Z" fill="#000000" fill-opacity="0" fill-rule="nonzero"/>
		<path id="path" d="M15.83 8.75C15.83 4.83 12.66 1.66 8.74 1.66C4.83 1.66 1.66 4.83 1.66 8.75C1.66 12.66 4.83 15.83 8.74 15.83C12.66 15.83 15.83 12.66 15.83 8.75Z" stroke="#A3A3A3" stroke-opacity="1.000000" stroke-width="1.500000" stroke-linejoin="round"/>
		<path id="path" d="M13.33 14.37L13.31 14.37C13.01 14.07 13.01 13.6 13.31 13.31C13.6 13.01 14.07 13.01 14.37 13.31L14.37 13.34L13.33 14.37ZM17.87 16.84L17.9 16.84C18.2 17.14 18.2 17.61 17.9 17.9C17.61 18.2 17.14 18.2 16.84 17.9L16.84 17.87L17.87 16.84Z" fill="#000000" fill-opacity="0" fill-rule="nonzero"/>
		<path id="path" d="M13.84 13.84L17.37 17.37" stroke="#A3A3A3" stroke-opacity="1.000000" stroke-width="1.500000" stroke-linejoin="round" stroke-linecap="round"/>
	</g>
</svg>
