<svg width="31.287109" height="31.287567" viewBox="0 0 31.2871 31.2876" fill="none" xmlns="http://www.w3.org/2000/svg" xmlns:xlink="http://www.w3.org/1999/xlink">
	<desc>
			Created with Pixso.
	</desc>
	<defs>
		<clipPath id="clip501_4411">
			<rect id="Telegram" width="31.287554" height="31.287558" fill="white" fill-opacity="0"/>
		</clipPath>
	</defs>
	<g clip-path="url(#clip501_4411)">
		<ellipse id="Эллипс 21" cx="15.643555" cy="15.643768" rx="15.643777" ry="15.643779" fill="#9F0E0E" fill-opacity="1.000000"/>
		<path id="path" d="M22.38 7.44C22.38 7.44 24.12 6.72 23.97 8.47C23.93 9.2 23.49 11.72 23.15 14.46L22 22.56C22 22.56 21.9 23.75 21.03 23.95C20.16 24.16 18.86 23.23 18.62 23.02C18.43 22.87 15 20.55 13.8 19.41C13.46 19.1 13.07 18.48 13.84 17.76L18.91 12.6C19.49 11.98 20.07 10.54 17.65 12.29L10.9 17.19C10.9 17.19 10.13 17.71 8.68 17.25L5.55 16.21C5.55 16.21 4.39 15.44 6.37 14.67C11.19 12.24 17.12 9.76 22.38 7.44Z" fill="#FFFFFF" fill-opacity="1.000000" fill-rule="nonzero"/>
	</g>
</svg>
