<svg width="31.287109" height="31.287567" viewBox="0 0 31.2871 31.2876" fill="none" xmlns="http://www.w3.org/2000/svg" xmlns:xlink="http://www.w3.org/1999/xlink">
	<desc>
			Created with Pixso.
	</desc>
	<defs>
		<clipPath id="clip501_4414">
			<rect id="vk logo" width="31.287554" height="31.287558" fill="white" fill-opacity="0"/>
		</clipPath>
	</defs>
	<g clip-path="url(#clip501_4414)">
		<ellipse id="Эллипс 21" cx="15.643555" cy="15.643768" rx="15.643777" ry="15.643779" fill="#9F0E0E" fill-opacity="1.000000"/>
		<path id="path" d="M25.16 19.01C24.71 18.47 24.19 17.98 23.69 17.51C23.51 17.34 23.33 17.17 23.15 16.99C22.65 16.5 22.63 16.31 23.03 15.75C23.31 15.36 23.6 14.97 23.89 14.59C24.15 14.25 24.41 13.9 24.67 13.54L24.72 13.47C25.21 12.79 25.72 12.09 25.99 11.24C26.06 11.02 26.13 10.69 25.96 10.42C25.8 10.14 25.47 10.06 25.24 10.02C25.13 10 25.01 10 24.91 10L21.7 10L21.67 10C21.19 10 20.86 10.23 20.67 10.7C20.49 11.15 20.3 11.62 20.07 12.08C19.63 12.99 19.06 14.03 18.24 14.9L18.2 14.94C18.11 15.04 18 15.16 17.92 15.16C17.91 15.16 17.89 15.16 17.88 15.15C17.71 15.09 17.59 14.68 17.6 14.48C17.6 14.48 17.6 14.48 17.6 14.48L17.6 10.77C17.6 10.75 17.59 10.74 17.59 10.73C17.51 10.12 17.33 9.75 16.65 9.62C16.63 9.61 16.61 9.61 16.59 9.61L13.25 9.61C12.71 9.61 12.41 9.83 12.13 10.16C12.05 10.25 11.9 10.43 11.97 10.66C12.05 10.88 12.31 10.93 12.4 10.95C12.81 11.03 13.05 11.28 13.12 11.73C13.23 12.5 13.25 13.33 13.16 14.33C13.14 14.61 13.09 14.83 13.01 15.01C12.99 15.05 12.93 15.19 12.86 15.19C12.84 15.19 12.78 15.18 12.67 15.11C12.41 14.93 12.23 14.68 12 14.37C11.25 13.3 10.62 12.13 10.08 10.79C9.87 10.29 9.5 10.02 9.01 10.01C8.48 10 8 10 7.54 10C7.03 10 6.57 10 6.11 10.01C5.72 10.02 5.45 10.13 5.31 10.36C5.17 10.58 5.18 10.88 5.34 11.23C6.62 14.09 7.79 16.16 9.11 17.96C10.04 19.22 10.97 20.09 12.05 20.71C13.18 21.35 14.44 21.67 15.92 21.67C16.08 21.67 16.26 21.66 16.43 21.66C17.29 21.61 17.6 21.3 17.64 20.47C17.66 20.04 17.71 19.6 17.92 19.21C18.05 18.97 18.18 18.97 18.22 18.97C18.29 18.97 18.39 19.01 18.5 19.08C18.68 19.2 18.84 19.36 18.97 19.5C19.1 19.64 19.22 19.78 19.34 19.91C19.6 20.21 19.88 20.51 20.16 20.8C20.78 21.44 21.47 21.72 22.26 21.66L25.2 21.66C25.21 21.66 25.21 21.66 25.22 21.65C25.51 21.64 25.77 21.47 25.92 21.21C26.1 20.88 26.1 20.46 25.91 20.09C25.69 19.67 25.41 19.31 25.16 19.01Z" fill="#FFFFFF" fill-opacity="1.000000" fill-rule="nonzero"/>
	</g>
</svg>
